<?xml version="1.0" encoding="UTF-8"?>
<svg id="_图层_1" data-name="图层 1" xmlns="http://www.w3.org/2000/svg" viewBox="0 0 301.06 439.29">
  <defs>
    <style>
      .cls-1 {
        fill: #231815;
        fill-rule: evenodd;
      }
    </style>
  </defs>
  <path class="cls-1" d="M183.2,313.03l37.02-63.24c-7.47,3.19-15.58,4.76-23.8,5.21l-19.88,33.95c4.27,7.61,6.26,15.52,6.65,24.08h0ZM252.01,195.49l49.05-83.78h-137.52c-4.47,5.73-10.05,10.44-15.98,14.59-1.64,1.14-3.3,2.24-4.97,3.31h127.25l-25.44,43.46c3.96,6.88,6.62,14.59,7.62,22.42h0ZM86.64,111.71c-6.02,5.11-11.2,11.11-15.14,17.9H31.23l113.6,194.05c-.76,5.57-2.18,11.11-3.04,15.14-.81,3.77-1.58,7.61-2.13,11.48l-64.4-110.01L0,111.71h86.64Z"/>
  <path class="cls-1" d="M151.47,302.33c-3.58-6.3-11.4-12.48-17.77-17.14-21.22-15.52-31.03-47.14-8.77-64.73,10.27-8.12,24.72-6.95,44.48-2.77,47.19,9.97,45.24-26.44,24.99-29.23-10.86-1.5-21.86,5.35-29.57,10.2-33.39,20.98-64.97,21.97-85.2-13.82-17.46-30.89-.46-65.26,34.55-78.51,15.28-5.78,22.31-15.71,25.05-28,4.18-18.75-8.46-64.1,10.94-78.33-6.01,39.01,21.7,82.09,5.1,104.26-19.4,26.38-62.72,32.63-41.23,61.76,27.42,37.18,62.32-37.81,109.74-2.58,14.44,10.73,23.61,33.08,17.31,51.51-3.45,10.1-10.51,18.45-19.64,23.74-13.73,7.97-31.53,8.09-46.86,5.64-9.84-1.58-34.56-7.7-30.82,15.77.89,5.6,4.4,9,7.44,12.55,9.04,10.56,18.65,17.83,21.69,33.02,1.06,5.27,1.32,11.49.5,19.13-1.84,17.14-10.93,23.06-14.79,35.46-.06.46-.11.93-.13,1.42-.28,6.46,3.22,10.63,4.08,13.81.15.56.93,1.69,1.4,3.58.75,2.5,1.51,5,2.26,7.5.45,1.57,1.42,3.1,1.97,4.66,1.95,5.57-2.64,9.37-4.99,13.7-1.38,2.54-3.08,6.39-4.72,8.33-.48.57-1.09,1.2-1.68,1.62-.66.47-1.4.65-2.13,1.13-.31,5.99,1.09,12.02,2.14,17.68.34,1.87.9,3.76,1.09,5.58h-.31c-.28-.7-1.15-1.87-1.55-2.62-1.63-3.01-2.36-5.02-3.22-8.28l-.23-.75s-.03-.08-.05-.12c-.27.26-.93,2.6-1.12,3.14-1.31,3.7-2.72,5.76-3.89,8.64h-.27c.09-.84.37-1.73.56-2.64,1.41-6.95,2.44-13.33,1.65-20.61-4.47-1.25-6.08-6.04-9.05-10.1-3.94-5.39-9.35-7.38-5.44-16.03,1.98-4.39,2.59-12.81,5.95-18.08,1.11-2.11,2.21-4.22,3.32-6.34.42-1.3.85-2.61,1.27-3.91-.03-.93.99-5.7,1.23-6.85.49-2.33,1.22-4.17,2.24-6.07.17-.31.37-.64.6-1.01,1.14-6.37,2.77-12.82,3.9-19.05,1.74-9.62,2.28-18.74-2.02-26.29Z"/>
</svg>